<?xml version="1.0" encoding="utf-8"?>
<!-- Generator: Adobe Illustrator 17.1.0, SVG Export Plug-In . SVG Version: 6.00 Build 0)  -->
<!DOCTYPE svg PUBLIC "-//W3C//DTD SVG 1.1//EN" "http://www.w3.org/Graphics/SVG/1.1/DTD/svg11.dtd">
<svg version="1.1" id="Layer_1" xmlns="http://www.w3.org/2000/svg" xmlns:xlink="http://www.w3.org/1999/xlink" x="0px" y="0px"
	 viewBox="0 0 35 35" enable-background="new 0 0 35 35" xml:space="preserve">
<g>
	<path d="M28.5,0l-0.8,4H0.5l2.5,15.1h21.5l-0.7,3.5H4v1.7H25l4.8-22.7h4.7V0H28.5z M24.8,17.5H4.4L2.4,5.7h24.8L24.8,17.5z"/>
	<path d="M4.9,27.3c-2.1,0-3.8,1.7-3.8,3.8S2.8,35,4.9,35s3.8-1.7,3.8-3.8S7,27.3,4.9,27.3z M6.4,32.7c-0.4,0.4-1,0.6-1.5,0.6
		c-1.2,0-2.2-1-2.2-2.2s1-2.2,2.2-2.2S7,30,7,31.2C7,31.7,6.8,32.3,6.4,32.7z"/>
	<path d="M22.9,27.3c-2.1,0-3.8,1.7-3.8,3.8s1.7,3.8,3.8,3.8s3.8-1.7,3.8-3.8S25,27.3,22.9,27.3z M22.9,33.3c-1.2,0-2.2-1-2.2-2.2
		s1-2.2,2.2-2.2s2.2,1,2.2,2.2S24.1,33.3,22.9,33.3z"/>
</g>
</svg>
