<?xml version="1.0" encoding="utf-8"?>
<!-- Generator: Adobe Illustrator 17.1.0, SVG Export Plug-In . SVG Version: 6.00 Build 0)  -->
<!DOCTYPE svg PUBLIC "-//W3C//DTD SVG 1.1//EN" "http://www.w3.org/Graphics/SVG/1.1/DTD/svg11.dtd">
<svg version="1.1" id="Layer_1" xmlns="http://www.w3.org/2000/svg" xmlns:xlink="http://www.w3.org/1999/xlink" x="0px" y="0px"
	 viewBox="0 0 35 35" enable-background="new 0 0 35 35" xml:space="preserve">
<g>
	<path d="M2.7,9.4h29.6c1.5,0,2.7-1.2,2.7-2.7C35,5.2,33.8,4,32.3,4H2.7C1.2,4,0,5.2,0,6.7C0,8.2,1.2,9.4,2.7,9.4L2.7,9.4z M2.7,5.4
		h29.6c0.7,0,1.3,0.6,1.3,1.3c0,0.7-0.6,1.3-1.3,1.3H2.7c-0.7,0-1.3-0.6-1.3-1.3C1.3,6,1.9,5.4,2.7,5.4L2.7,5.4z M2.7,5.4"/>
	<path d="M32.3,14.8H2.7C1.2,14.8,0,16,0,17.5c0,1.5,1.2,2.7,2.7,2.7h29.6c1.5,0,2.7-1.2,2.7-2.7C35,16,33.8,14.8,32.3,14.8
		L32.3,14.8z M32.3,18.8H2.7c-0.7,0-1.3-0.6-1.3-1.3c0-0.7,0.6-1.3,1.3-1.3h29.6c0.7,0,1.3,0.6,1.3,1.3
		C33.7,18.2,33.1,18.8,32.3,18.8L32.3,18.8z M32.3,18.8"/>
	<path d="M32.3,25.6H2.7c-1.5,0-2.7,1.2-2.7,2.7C0,29.8,1.2,31,2.7,31h29.6c1.5,0,2.7-1.2,2.7-2.7C35,26.8,33.8,25.6,32.3,25.6
		L32.3,25.6z M32.3,29.6H2.7c-0.7,0-1.3-0.6-1.3-1.3c0-0.7,0.6-1.3,1.3-1.3h29.6c0.7,0,1.3,0.6,1.3,1.3C33.7,29,33.1,29.6,32.3,29.6
		L32.3,29.6z M32.3,29.6"/>
</g>
</svg>
