<?xml version="1.0" encoding="utf-8"?>
<!-- Generator: Adobe Illustrator 17.1.0, SVG Export Plug-In . SVG Version: 6.00 Build 0)  -->
<!DOCTYPE svg PUBLIC "-//W3C//DTD SVG 1.1//EN" "http://www.w3.org/Graphics/SVG/1.1/DTD/svg11.dtd">
<svg version="1.1" id="Layer_1" xmlns="http://www.w3.org/2000/svg" xmlns:xlink="http://www.w3.org/1999/xlink" x="0px" y="0px"
	 viewBox="0 0 100 100" enable-background="new 0 0 100 100" xml:space="preserve">
<path fill="#9F0F18" d="M50,99.9C22.5,99.9,0.1,77.5,0.1,50S22.5,0.1,50,0.1S99.9,22.5,99.9,50S77.5,99.9,50,99.9z M50,3.6
	C24.4,3.6,3.6,24.4,3.6,50S24.4,96.4,50,96.4S96.4,75.6,96.4,50S75.6,3.6,50,3.6z M44.9,63.9l24.3-24c1-1,1-2.7,0-3.7s-2.7-1-3.7,0
	L43,58.4l-8.6-7.9c-1.1-1-2.7-0.9-3.7,0.2c-1,1.1-0.9,2.7,0.2,3.7l10.4,9.5c0.5,0.5,1.1,0.7,1.8,0.7C43.7,64.6,44.4,64.4,44.9,63.9z
	"/>
</svg>
