<svg xmlns="http://www.w3.org/2000/svg" xmlns:xlink="http://www.w3.org/1999/xlink" width="33" height="32" viewBox="0 0 33 32"><defs><path id="a" d="M840.86 67.94a11.1 11.1 0 0 1-.84-4.8c.1-1.15.56-2.14 1.38-2.96l2.25-2.25a3.1 3.1 0 0 1 2.15-.93 3 3 0 0 1 2.12.92c.41.38.83.8 1.22 1.21l.62.63 1.8 1.79c.65.65 1 1.4 1 2.16 0 .76-.35 1.52-1 2.16l-.56.56c-.51.53-1.04 1.06-1.6 1.57.4.93.97 1.85 1.83 2.93 1.71 2.09 3.5 3.71 5.46 4.96l.66.36.6.3 2.16-2.14a3.03 3.03 0 0 1 2.14-.97c.77 0 1.5.34 2.12.97l3.62 3.62c1.3 1.29 1.3 2.98.02 4.32l-.85.84c-.42.4-.82.78-1.17 1.2l-.02.03a4.76 4.76 0 0 1-3.69 1.58l-.4-.01a16 16 0 0 1-5.75-1.7c-3.94-1.9-7.4-4.6-10.26-8.01a27.95 27.95 0 0 1-5.01-8.34zm1.39-.5c1 2.7 2.51 5.21 4.76 7.91a29.3 29.3 0 0 0 9.77 7.63 14.54 14.54 0 0 0 5.5 1.57c1.07 0 1.9-.35 2.6-1.1.39-.47.83-.9 1.25-1.3.29-.27.55-.53.8-.8.74-.76.74-1.55.02-2.27l-3.63-3.61c-.24-.26-.61-.54-1.07-.54-.37 0-.75.19-1.1.54l-2.26 2.24c-.1.1-.41.41-.9.41-.19 0-.38-.05-.58-.15l-.06-.04c-.2-.12-.43-.24-.67-.36-.26-.13-.53-.26-.8-.43-2.09-1.33-4-3.05-5.8-5.27-1-1.27-1.65-2.32-2.12-3.44 0-.01 0-.03-.02-.04-.12-.36-.2-.84.3-1.34.02 0 .02-.02.04-.03.57-.5 1.1-1.04 1.66-1.6l.56-.57c.37-.38.57-.75.57-1.13 0-.37-.2-.75-.57-1.12l-1.8-1.8-.62-.63-1.2-1.18a1.54 1.54 0 0 0-1.08-.52c-.37 0-.76.18-1.11.51l-2.24 2.24a3.17 3.17 0 0 0-.96 2.04c-.1 1.2.14 2.54.76 4.19z"/></defs><g transform="translate(-838 -55)"><use fill="#9f0f18" xlink:href="#a"/><use fill="#369" xlink:href="#a"/></g></svg>