<?xml version="1.0" encoding="utf-8"?>
<!-- Generator: Adobe Illustrator 22.0.0, SVG Export Plug-In . SVG Version: 6.00 Build 0)  -->
<svg version="1.1" id="Layer_1" xmlns="http://www.w3.org/2000/svg" xmlns:xlink="http://www.w3.org/1999/xlink" x="0px" y="0px"
	 viewBox="0 0 174.7 212.3" style="enable-background:new 0 0 174.7 212.3;" xml:space="preserve">
<g>
	<path class="st0" fill="#336699"  d="M101.2,171.1l-2.2,5.6h5.5l-2.1-5.6c-0.2-0.4-0.4-1-0.6-1.8C101.7,169.9,101.5,170.5,101.2,171.1z"/>
	<path class="st0" fill="#336699" d="M129.2,176.1c-0.7-0.5-1.8-0.8-3.3-0.8h-3v6.7h3.2c1.4,0,2.4-0.3,3.1-0.8c0.7-0.6,1-1.4,1-2.7
		C130.3,177.5,129.9,176.6,129.2,176.1z"/>
	<path class="st0" fill="#336699" d="M73.7,171.1l-2.2,5.6h5.5l-2.1-5.6c-0.2-0.4-0.4-1-0.6-1.8C74.1,169.9,73.9,170.5,73.7,171.1z"/>
	<path class="st0" fill="#336699" d="M98.1,64.4H72.4v5h25.7c1.4,0,2.5-1.1,2.5-2.5C100.6,65.5,99.5,64.4,98.1,64.4z"/>
	<path class="st0" fill="#336699" d="M98.1,84.8H63.9c-1.4,0-2.5,1.1-2.5,2.5s1.1,2.5,2.5,2.5h34.2c1.4,0,2.5-1.1,2.5-2.5S99.5,84.8,98.1,84.8z"/>
	<polygon class="st0" fill="#336699" points="76.8,26.3 123.5,26.3 123.5,34 130.4,34 130.4,93.7 128.2,93.7 128.2,99.7 136.4,99.7 136.4,30.3 
		126.6,20.3 70.8,20.3 70.8,30 76.8,30 	"/>
	<path class="st0" fill="#336699" d="M98.1,74.6H72.4v5h25.7c1.4,0,2.5-1.1,2.5-2.5S99.5,74.6,98.1,74.6z"/>
	<path class="st0" fill="#336699" d="M0.1,0v141h0v71.3h174.6V142h0.1V0H0.1z M54.3,169.2c-1.1-0.6-2.3-0.8-3.6-0.8c-1.9,0-3.5,0.6-4.6,1.9
		c-1.1,1.2-1.7,2.9-1.7,5.1c0,2.2,0.5,3.9,1.6,5.1c1.1,1.2,2.6,1.8,4.5,1.8c1.3,0,2.5-0.2,3.6-0.5v1c-1,0.4-2.3,0.5-3.8,0.5
		c-2.2,0-3.9-0.7-5.1-2.1s-1.9-3.4-1.9-5.9c0-1.6,0.3-3,0.9-4.2c0.6-1.2,1.5-2.1,2.6-2.8c1.1-0.7,2.4-1,3.9-1c1.5,0,2.9,0.3,4.1,0.8
		L54.3,169.2z M79.6,183.1l-2.1-5.5h-6.3l-2.2,5.5h-1.2h-1.5l-7.7-7.9v7.9h-1.1v-15.5h1.1v7.5l7.4-7.5h1.4l-7.5,7.5l7.7,8l6.2-15.5
		h0.7l6.1,15.5H79.6z M93.1,183.1h-1.1v-6.7c-1.8,0.7-3.5,1.1-4.9,1.1c-1.4,0-2.5-0.3-3.3-1s-1.1-1.6-1.1-2.9v-6h1.1v6
		c0,1.9,1.1,2.8,3.4,2.8c0.7,0,1.4-0.1,2-0.2c0.7-0.1,1.6-0.4,2.8-0.8v-7.8h1.1V183.1z M107.1,183.1l-2.1-5.5h-6.3l-2.2,5.5h-1.2
		l6.2-15.5h0.7l6.1,15.5H107.1z M119.6,168.6h-5v14.5h-1.1v-14.5h-5v-1h11.1V168.6z M130.1,181.9c-0.9,0.8-2.1,1.1-3.8,1.1h-4.4
		v-15.5h1.1v6.8h3.1c1.8,0,3.1,0.3,4,1c0.9,0.7,1.3,1.7,1.3,3.2C131.4,180.1,131,181.2,130.1,181.9z M172.8,140H2.1V2h170.7V140z"/>
	<path class="st0" fill="#336699" d="M98.1,105.3H63.9c-1.4,0-2.5,1.1-2.5,2.5s1.1,2.5,2.5,2.5h34.2c1.4,0,2.5-1.1,2.5-2.5S99.5,105.3,98.1,105.3z"
		/>
	<polygon class="st0" fill="#336699" points="65.8,38.6 112.5,38.6 112.5,46.2 119.4,46.2 119.4,105.9 117.2,105.9 117.2,111.9 125.4,111.9 
		125.4,42.6 115.6,32.6 59.8,32.6 59.8,42.2 65.8,42.2 	"/>
	<polygon class="st0" fill="#336699" points="53.8,59.3 53.8,50.7 100.5,50.7 100.5,58.4 107.5,58.4 107.5,118 53.8,118 53.8,82.9 47.8,82.9 
		47.8,124 113.5,124 113.5,54.7 103.6,44.7 47.8,44.7 47.8,59.3 	"/>
	<path class="st0" fill="#336699" d="M98.1,95H63.9c-1.4,0-2.5,1.1-2.5,2.5c0,1.4,1.1,2.5,2.5,2.5h34.2c1.4,0,2.5-1.1,2.5-2.5
		C100.6,96.1,99.5,95,98.1,95z"/>
</g>
<g>
	<path class="st1" fill="#961C28" d="M39.2,67.2h-2.9v4.6h2.8c0.8,0,1.5-0.2,1.9-0.6s0.7-1,0.7-1.7c0-0.7-0.2-1.3-0.7-1.7S40,67.2,39.2,67.2z"/>
	<path class="st1" fill="#961C28" d="M26.4,59.3v23.6h46V59.3H26.4z M42.2,72.1c-0.7,0.6-1.7,0.9-3.1,0.9h-2.8v4.6h-1.6V65.9h4.3c1.3,0,2.3,0.3,3,1
		c0.7,0.7,1.1,1.5,1.1,2.6C43.2,70.6,42.9,71.5,42.2,72.1z M53.7,72.1c0,1.1-0.2,2.1-0.6,2.9c-0.4,0.8-1,1.5-1.8,1.9
		s-1.7,0.7-2.8,0.7h-3.3V65.9h3.3c1,0,1.9,0.2,2.7,0.7c0.8,0.5,1.4,1.1,1.8,1.9c0.4,0.8,0.6,1.8,0.7,2.9V72.1z M63.4,67.2h-5.7v4
		h4.9v1.3h-4.9v5.2h-1.6V65.9h7.3V67.2z"/>
	<path class="st1" fill="#961C28" d="M48.6,67.2h-1.8v9.2h1.6c1.2,0,2.1-0.4,2.8-1.1c0.7-0.7,1-1.8,1-3.2v-0.7c0-1.3-0.3-2.4-0.9-3.1
		C50.6,67.5,49.7,67.2,48.6,67.2z"/>
</g>
</svg>
