<?xml version="1.0" encoding="utf-8"?>
<!-- Generator: Adobe Illustrator 22.0.0, SVG Export Plug-In . SVG Version: 6.00 Build 0)  -->
<svg version="1.1" id="Layer_1" xmlns="http://www.w3.org/2000/svg" xmlns:xlink="http://www.w3.org/1999/xlink" x="0px" y="0px"
	 viewBox="0 0 30 30" style="enable-background:new 0 0 30 30;" xml:space="preserve">
<path fill="#c4c4c4" d="M0.1,24.4c2.7,1.7,5.9,2.7,9.3,2.7c9.6,0,17.4-7.8,17.4-17.4c0-0.2,0-0.5,0-0.7c0.3-0.3,2.5-2,3-3.1c0,0-1.7,0.7-3.5,0.9
	c0,0,0,0,0,0c0,0,0,0,0,0c0.2-0.1,2.4-1.6,2.7-3.4c0,0-1.2,0.7-3,1.2c-0.3,0.1-0.6,0.2-0.9,0.3c-1.1-1.2-2.7-1.9-4.5-1.9
	c-3.4,0-6.1,2.7-6.1,6.1c0,0.5,0.1,0.9,0.2,1.4c-0.5,0-7.7-0.4-12.5-6.3c0,0-2.9,4,1.7,8.1c0,0-1.4-0.1-2.6-0.8c0,0-0.4,4.8,4.8,6.1
	c0,0-1,0.4-2.7,0.1c0,0,0.9,3.9,5.6,4.3C9.1,21.8,5.4,25.2,0.1,24.4L0.1,24.4z"/>
</svg>
