<?xml version="1.0" encoding="utf-8"?>
<!-- Generator: Adobe Illustrator 22.0.0, SVG Export Plug-In . SVG Version: 6.00 Build 0)  -->
<svg version="1.1" id="Layer_1" xmlns="http://www.w3.org/2000/svg" xmlns:xlink="http://www.w3.org/1999/xlink" x="0px" y="0px"
	 viewBox="0 0 30 30" style="enable-background:new 0 0 30 30;" xml:space="preserve">
<path fill="#ffffff" d="M28.1,2.5L0.7,13.2c-0.9,0.3-0.8,1.6,0.1,1.9l7,2.1l2.6,8.2c0.3,0.9,1.4,1.1,2,0.5l3.6-3.7l7.1,5.2c0.9,0.6,2.1,0.2,2.3-0.9
	L30,4.1C30.2,3,29.1,2.1,28.1,2.5z M24.6,7.4L11.9,18.7c-0.1,0.1-0.2,0.3-0.2,0.4l-0.5,4.4c0,0.1-0.2,0.2-0.3,0l-2-6.5
	c-0.1-0.3,0-0.6,0.3-0.8l15-9.3C24.6,6.7,24.9,7.2,24.6,7.4z"/>
</svg>
