<?xml version="1.0" encoding="utf-8"?>
<!-- Generator: Adobe Illustrator 22.0.0, SVG Export Plug-In . SVG Version: 6.00 Build 0)  -->
<svg version="1.1" id="Layer_1" xmlns="http://www.w3.org/2000/svg" xmlns:xlink="http://www.w3.org/1999/xlink" x="0px" y="0px"
	 viewBox="0 0 30 30" style="enable-background:new 0 0 30 30;" xml:space="preserve">
<g>
	<path fill="#ffffff" d="M0,30l2.1-7.5c-1.3-2.3-2.1-4.9-2.1-7.6c0-8.3,6.7-15,15-15s15,6.7,15,15s-6.7,15-15,15c-2.6,0-5.1-0.7-7.3-1.9L0,30z
		 M8.1,25.3l0.5,0.3c1.9,1.2,4.2,1.8,6.5,1.8c6.9,0,12.4-5.6,12.4-12.4S21.9,2.5,15,2.5S2.6,8.1,2.6,15c0,2.4,0.7,4.7,2,6.7l0.3,0.5
		l-1.2,4.3L8.1,25.3z"/>
	<path fill="#ffffff" d="M10.8,8l-1-0.1C9.5,7.9,9.2,8,9,8.2c-0.5,0.4-1.2,1.2-1.5,2.2c-0.3,1.5,0.2,3.4,1.6,5.3c1.4,1.9,3.9,4.9,8.5,6.2
		c1.5,0.4,2.6,0.1,3.5-0.4c0.7-0.5,1.2-1.2,1.4-2l0.2-0.7c0-0.2-0.1-0.5-0.3-0.6l-3.3-1.5c-0.2-0.1-0.5,0-0.6,0.1l-1.3,1.7
		c-0.1,0.1-0.3,0.2-0.4,0.1c-0.9-0.3-3.8-1.5-5.5-4.7c-0.1-0.1-0.1-0.3,0-0.4l1.2-1.4c0.1-0.1,0.2-0.3,0.1-0.5l-1.4-3.3
		C11.2,8.1,11,8,10.8,8z"/>
</g>
</svg>
